<svg width="24" height="24" viewBox="0 0 24 24" fill="none" xmlns="http://www.w3.org/2000/svg">
<path d="M12 2C6.48566 2 2 6.48566 2 12C2 17.5143 6.48566 22 12 22C17.5143 22 22 17.5136 22 12C22 6.48645 17.5143 2 12 2ZM12 20.4508C7.34082 20.4508 3.54918 16.66 3.54918 12C3.54918 7.34004 7.34082 3.54918 12 3.54918C16.6592 3.54918 20.4508 7.34004 20.4508 12C20.4508 16.66 16.66 20.4508 12 20.4508Z" fill="black"/>
<path d="M15.8729 11.1562H12.7746V8.05781C12.7746 7.63023 12.4283 7.2832 12 7.2832C11.5716 7.2832 11.2253 7.63023 11.2253 8.05781V11.1562H8.12699C7.69863 11.1562 7.35238 11.5032 7.35238 11.9308C7.35238 12.3584 7.69863 12.7054 8.12699 12.7054H11.2253V15.8038C11.2253 16.2313 11.5716 16.5784 12 16.5784C12.4283 16.5784 12.7746 16.2313 12.7746 15.8038V12.7054H15.8729C16.3013 12.7054 16.6475 12.3584 16.6475 11.9308C16.6475 11.5032 16.3013 11.1562 15.8729 11.1562Z" fill="black"/>
</svg>
