<svg width="24" height="24" viewBox="0 0 24 24" fill="none" xmlns="http://www.w3.org/2000/svg">
<path d="M5.33333 6.95652V11.1957H4V6.95652H5.33333ZM4 13.8043V18.0435H5.33333V13.8043H4ZM11 6.95652V11.1957H12.3333V6.95652H11ZM11 13.8043V18.0435H12.3333V13.8043H11ZM18.6667 6.95652V11.1957H20V6.95652H18.6667ZM18.6667 13.8043V18.0435H20V13.8043H18.6667ZM8 6.95652V11.1957H8.66667V6.95652H8ZM8 13.8043V18.0435H8.66667V13.8043H8ZM9.33333 6.95652V11.1957H10V6.95652H9.33333ZM9.33333 13.8043V18.0435H10V13.8043H9.33333ZM15.3333 6.95652V11.1957H16V6.95652H15.3333ZM15.3333 13.8043V18.0435H16V13.8043H15.3333ZM16.6667 6.95652V11.1957H17.3333V6.95652H16.6667ZM16.6667 13.8043V18.0435H17.3333V13.8043H16.6667ZM6.33333 6.95652V11.1957H7.33333V6.95652H6.33333ZM6.33333 13.8043V18.0435H7.33333V13.8043H6.33333ZM13.3333 6.95652V11.1957H14.3333V6.95652H13.3333ZM13.3333 13.8043V18.0435H14.3333V13.8043H13.3333ZM21.6667 11.8478H2.33333V13.1522H21.6667V11.8478ZM2.66667 5.65217H5.66667V5H2V8.58696H2.66667V5.65217ZM22 5H18.3333V5.65217H21.3333V8.58696H22V5ZM5.66667 19.3478H2.66667V16.413H2V20H5.66667V19.3478ZM22 16.413H21.3333V19.3478H18.3333V20H22V16.413Z" fill="black"/>
</svg>
