<svg width="18" height="18" viewBox="0 0 18 18" fill="none" xmlns="http://www.w3.org/2000/svg">
<path d="M14.9167 12.2753C14.4194 11.8558 14.0198 11.3326 13.7458 10.7424C13.4719 10.1522 13.3302 9.50933 13.3307 8.85867V7C13.3307 4.654 11.5881 2.712 9.33072 2.38667V1.66667C9.33072 1.48986 9.26048 1.32029 9.13546 1.19526C9.01044 1.07024 8.84087 1 8.66405 1C8.48724 1 8.31768 1.07024 8.19265 1.19526C8.06763 1.32029 7.99739 1.48986 7.99739 1.66667V2.38667C5.73939 2.712 3.99739 4.654 3.99739 7V8.85867C3.99765 9.51065 3.85528 10.1548 3.58026 10.7459C3.30525 11.3371 2.90425 11.8609 2.40539 12.2807C2.22509 12.4361 2.09659 12.6429 2.03709 12.8734C1.97758 13.1038 1.98991 13.347 2.07244 13.5703C2.15496 13.7935 2.30373 13.9863 2.49882 14.1226C2.69392 14.259 2.92602 14.3325 3.16405 14.3333H14.1641C14.8074 14.3333 15.3307 13.81 15.3307 13.1667C15.3307 12.8253 15.1821 12.5027 14.9167 12.2753ZM8.66405 17C9.24007 16.9992 9.7982 16.7999 10.2444 16.4355C10.6905 16.0712 10.9974 15.5642 11.1134 15H6.21472C6.33066 15.5642 6.63758 16.0712 7.08375 16.4355C7.52991 16.7999 8.08804 16.9992 8.66405 17Z" fill="#F96932"/>
</svg>
