<svg width="56" height="56" viewBox="0 0 56 56" fill="none" xmlns="http://www.w3.org/2000/svg">
<rect x="0.5" y="0.5" width="55" height="55" rx="27.5" fill="#EFF6FF" stroke="#3B82F6"/>
<path d="M25.6 35.8C25.6 36.2774 25.4104 36.7352 25.0728 37.0728C24.7352 37.4104 24.2774 37.6 23.8 37.6C23.3226 37.6 22.8648 37.4104 22.5272 37.0728C22.1896 36.7352 22 36.2774 22 35.8C22 35.3226 22.1896 34.8648 22.5272 34.5272C22.8648 34.1896 23.3226 34 23.8 34C24.2774 34 24.7352 34.1896 25.0728 34.5272C25.4104 34.8648 25.6 35.3226 25.6 35.8Z" fill="#3B82F6"/>
<path d="M33.9999 35.8C33.9999 36.2774 33.8103 36.7352 33.4727 37.0728C33.1351 37.4104 32.6773 37.6 32.1999 37.6C31.7225 37.6 31.2647 37.4104 30.9271 37.0728C30.5895 36.7352 30.3999 36.2774 30.3999 35.8C30.3999 35.3226 30.5895 34.8648 30.9271 34.5272C31.2647 34.1896 31.7225 34 32.1999 34C32.6773 34 33.1351 34.1896 33.4727 34.5272C33.8103 34.8648 33.9999 35.3226 33.9999 35.8Z" fill="#3B82F6"/>
<path d="M19.5999 20.8C19.2816 20.8 18.9764 20.9264 18.7514 21.1515C18.5263 21.3765 18.3999 21.6817 18.3999 22V34C18.3999 34.3183 18.5263 34.6235 18.7514 34.8485C18.9764 35.0736 19.2816 35.2 19.5999 35.2H20.8599C20.9976 34.5218 21.3655 33.9121 21.9013 33.4742C22.4372 33.0362 23.1079 32.797 23.7999 32.797C24.4919 32.797 25.1627 33.0362 25.6985 33.4742C26.2343 33.9121 26.6022 34.5218 26.7399 35.2H27.9999C28.3182 35.2 28.6234 35.0736 28.8484 34.8485C29.0735 34.6235 29.1999 34.3183 29.1999 34V22C29.1999 21.6817 29.0735 21.3765 28.8484 21.1515C28.6234 20.9264 28.3182 20.8 27.9999 20.8H19.5999Z" fill="#3B82F6"/>
<path d="M32.7999 24.4C32.4816 24.4 32.1764 24.5264 31.9513 24.7515C31.7263 24.9765 31.5999 25.2817 31.5999 25.6V32.86C31.9859 32.7811 32.3838 32.7791 32.7707 32.854C33.1576 32.9289 33.5259 33.0793 33.8546 33.2966C34.1834 33.5139 34.4661 33.7939 34.6866 34.1205C34.9071 34.447 35.0611 34.8139 35.1399 35.2H36.3999C36.7181 35.2 37.0233 35.0736 37.2484 34.8485C37.4734 34.6235 37.5999 34.3183 37.5999 34V28C37.5998 27.6818 37.4733 27.3766 37.2483 27.1516L34.8483 24.7516C34.6233 24.5265 34.3181 24.4001 33.9999 24.4H32.7999Z" fill="#3B82F6"/>
</svg>
