<svg width="56" height="56" viewBox="0 0 56 56" fill="none" xmlns="http://www.w3.org/2000/svg">
<rect x="0.5" y="0.5" width="55" height="55" rx="27.5" fill="#FFE9E1" stroke="#F96932"/>
<path fill-rule="evenodd" clip-rule="evenodd" d="M22.06 20.86C23.6354 19.2846 25.772 18.3996 28 18.3996C30.2279 18.3996 32.3646 19.2846 33.94 20.86C35.5154 22.4354 36.4004 24.5721 36.4004 26.8C36.4004 29.0279 35.5154 31.1646 33.94 32.74L28 38.68L22.06 32.74C21.2799 31.96 20.6611 31.0339 20.2389 30.0147C19.8167 28.9955 19.5994 27.9032 19.5994 26.8C19.5994 25.6968 19.8167 24.6045 20.2389 23.5853C20.6611 22.5661 21.2799 21.64 22.06 20.86ZM28 29.2C28.6365 29.2 29.2469 28.9471 29.697 28.4971C30.1471 28.047 30.4 27.4365 30.4 26.8C30.4 26.1635 30.1471 25.553 29.697 25.1029C29.2469 24.6529 28.6365 24.4 28 24.4C27.3635 24.4 26.753 24.6529 26.3029 25.1029C25.8528 25.553 25.6 26.1635 25.6 26.8C25.6 27.4365 25.8528 28.047 26.3029 28.4971C26.753 28.9471 27.3635 29.2 28 29.2Z" fill="#F96932"/>
</svg>
