<svg width="18" height="18" viewBox="0 0 18 18" fill="none" xmlns="http://www.w3.org/2000/svg">
<path d="M10.6652 4.39281L11.6037 3.47647C11.6705 3.41124 11.7178 3.32856 11.7402 3.2378C11.7625 3.14704 11.7591 3.05182 11.7302 2.96292C11.7013 2.87402 11.6482 2.795 11.5768 2.73479C11.5054 2.67458 11.4185 2.63559 11.3262 2.62223L10.0287 2.43346L9.44865 1.25625C9.40257 1.17819 9.33698 1.1135 9.25833 1.06857C9.17968 1.02363 9.0907 1 9.00015 1C8.9096 1 8.82062 1.02363 8.74197 1.06857C8.66332 1.1135 8.59773 1.17819 8.55165 1.25625L7.97165 2.43346L6.67415 2.62223C6.5818 2.63566 6.49504 2.67471 6.4237 2.73495C6.35236 2.79519 6.29927 2.87422 6.27045 2.96311C6.24163 3.05199 6.23822 3.14718 6.26061 3.23791C6.283 3.32863 6.3303 3.41127 6.39715 3.47647L7.33565 4.39281L7.11415 5.68718C7.09846 5.7792 7.10877 5.87378 7.14391 5.96024C7.17906 6.0467 7.23763 6.1216 7.31303 6.17649C7.38843 6.23137 7.47765 6.26406 7.57061 6.27086C7.66358 6.27765 7.75659 6.25829 7.83915 6.21495L9.00015 5.60406L10.1607 6.21495C10.2432 6.25843 10.3363 6.2779 10.4293 6.27117C10.5224 6.26444 10.6117 6.23178 10.6872 6.17687C10.7627 6.12196 10.8213 6.047 10.8565 5.96047C10.8916 5.87393 10.9019 5.77927 10.8862 5.68718L10.6652 4.39281ZM16.9757 4.44338C16.9468 4.35459 16.8937 4.27566 16.8224 4.21549C16.7511 4.15532 16.6644 4.11632 16.5722 4.10288L15.2747 3.91361L14.6942 2.7364C14.6482 2.65822 14.5826 2.59341 14.504 2.54838C14.4253 2.50335 14.3363 2.47966 14.2457 2.47966C14.1551 2.47966 14.066 2.50335 13.9874 2.54838C13.9087 2.59341 13.8431 2.65822 13.7972 2.7364L13.2172 3.91361L11.9197 4.10238C11.8273 4.11581 11.7405 4.15486 11.6692 4.2151C11.5979 4.27534 11.5448 4.35437 11.516 4.44326C11.4871 4.53214 11.4837 4.62733 11.5061 4.71806C11.5285 4.80878 11.5758 4.89142 11.6427 4.95662L12.5817 5.87295L12.3597 7.16733C12.3438 7.25945 12.354 7.35419 12.3891 7.4408C12.4242 7.52742 12.4828 7.60246 12.5583 7.65744C12.6338 7.71241 12.7232 7.74512 12.8163 7.75187C12.9094 7.75861 13.0025 7.73912 13.0852 7.6956L14.2452 7.08471L15.4062 7.6956C15.4888 7.73912 15.5819 7.75861 15.675 7.75187C15.7681 7.74512 15.8575 7.71241 15.933 7.65744C16.0085 7.60246 16.0671 7.52742 16.1022 7.4408C16.1373 7.35419 16.1475 7.25945 16.1317 7.16733L15.9102 5.87295L16.8487 4.95662C16.9155 4.89146 16.9629 4.80886 16.9853 4.71816C17.0078 4.62746 17.0044 4.53227 16.9757 4.44338ZM6.08015 4.10238L4.78315 3.91361L4.20315 2.7364C4.16188 2.65255 4.09801 2.58193 4.01874 2.53256C3.93948 2.48318 3.84799 2.45701 3.75465 2.45701C3.6613 2.45701 3.56982 2.48318 3.49055 2.53256C3.41129 2.58193 3.34741 2.65255 3.30615 2.7364L2.72615 3.91361L1.42815 4.10238C1.3358 4.11581 1.24904 4.15486 1.1777 4.2151C1.10635 4.27534 1.05327 4.35437 1.02445 4.44326C0.995624 4.53214 0.992215 4.62733 1.01461 4.71806C1.037 4.80878 1.08429 4.89142 1.15115 4.95662L2.09015 5.87295L1.86865 7.16733C1.85296 7.25935 1.86327 7.35393 1.89841 7.44039C1.93355 7.52685 1.99213 7.60175 2.06753 7.65663C2.14293 7.71152 2.23214 7.74421 2.32511 7.751C2.41808 7.7578 2.51109 7.73844 2.59365 7.6951L3.75465 7.08421L4.91465 7.6951C4.99724 7.73871 5.09037 7.7583 5.1835 7.75164C5.27663 7.74498 5.36604 7.71234 5.4416 7.65741C5.51716 7.60248 5.57585 7.52746 5.61103 7.44085C5.64621 7.35423 5.65647 7.25948 5.64065 7.16733L5.41915 5.87295L6.35815 4.95662C6.42486 4.89137 6.47202 4.80873 6.4943 4.71804C6.51658 4.62735 6.51309 4.53223 6.48423 4.44342C6.45536 4.35462 6.40227 4.27567 6.33096 4.21549C6.25964 4.15531 6.17294 4.11631 6.08065 4.10288L6.08015 4.10238ZM14.0002 8.48775H4.00015C3.60244 8.48815 3.22114 8.64654 2.93992 8.92817C2.65871 9.20979 2.50054 9.59165 2.50015 9.98993V13.9957C2.50054 14.394 2.65871 14.7759 2.93992 15.0575C3.22114 15.3391 3.60244 15.4975 4.00015 15.4979H7.29315L8.64665 16.8534C8.74041 16.9473 8.86757 17 9.00015 17C9.13273 17 9.25989 16.9473 9.35365 16.8534L10.7072 15.4979H14.0002C14.3979 15.4975 14.7792 15.3391 15.0604 15.0575C15.3416 14.7759 15.4998 14.394 15.5002 13.9957V9.98993C15.4998 9.59165 15.3416 9.20979 15.0604 8.92817C14.7792 8.64654 14.3979 8.48815 14.0002 8.48775ZM13.0002 13.495H5.00015C4.86754 13.495 4.74036 13.4423 4.64659 13.3484C4.55283 13.2545 4.50015 13.1271 4.50015 12.9943C4.50015 12.8615 4.55283 12.7341 4.64659 12.6402C4.74036 12.5463 4.86754 12.4936 5.00015 12.4936H13.0002C13.1328 12.4936 13.2599 12.5463 13.3537 12.6402C13.4475 12.7341 13.5002 12.8615 13.5002 12.9943C13.5002 13.1271 13.4475 13.2545 13.3537 13.3484C13.2599 13.4423 13.1328 13.495 13.0002 13.495ZM13.0002 11.4921H5.00015C4.86754 11.4921 4.74036 11.4394 4.64659 11.3455C4.55283 11.2515 4.50015 11.1242 4.50015 10.9914C4.50015 10.8586 4.55283 10.7312 4.64659 10.6373C4.74036 10.5434 4.86754 10.4907 5.00015 10.4907H13.0002C13.1328 10.4907 13.2599 10.5434 13.3537 10.6373C13.4475 10.7312 13.5002 10.8586 13.5002 10.9914C13.5002 11.1242 13.4475 11.2515 13.3537 11.3455C13.2599 11.4394 13.1328 11.4921 13.0002 11.4921Z" fill="#3B82F6"/>
</svg>
