<svg width="18" height="18" viewBox="0 0 18 18" fill="none" xmlns="http://www.w3.org/2000/svg">
<path d="M12.9897 11.8474C12.628 11.8478 12.2705 11.9246 11.9406 12.0727C11.6106 12.2208 11.3157 12.437 11.0751 12.707L6.93944 10.0358C7.08432 9.70966 7.15917 9.35674 7.15917 8.99986C7.15917 8.64298 7.08432 8.29006 6.93944 7.96391L11.0751 5.29267C11.4774 5.73876 12.0232 6.0299 12.6178 6.11553C13.2123 6.20117 13.8181 6.0759 14.33 5.76147C14.8418 5.44705 15.2274 4.96332 15.4198 4.39425C15.6122 3.82519 15.5992 3.20673 15.3831 2.64622C15.1671 2.08572 14.7616 1.61857 14.237 1.32586C13.7124 1.03316 13.1019 0.933382 12.5115 1.04385C11.921 1.15432 11.3879 1.46807 11.0046 1.93062C10.6214 2.39318 10.4122 2.97533 10.4134 3.57603C10.4131 3.93295 10.4879 4.28593 10.6331 4.61198L6.4974 7.28322C6.14967 6.89407 5.69195 6.61971 5.18485 6.49644C4.67774 6.37317 4.14516 6.40682 3.6576 6.59292C3.17003 6.77902 2.75048 7.1088 2.45449 7.53861C2.15849 7.96842 2 8.47799 2 8.99986C2 9.52173 2.15849 10.0313 2.45449 10.4611C2.75048 10.8909 3.17003 11.2207 3.6576 11.4068C4.14516 11.5929 4.67774 11.6265 5.18485 11.5033C5.69195 11.38 6.14967 11.1056 6.4974 10.7165L10.6331 13.3877C10.4879 13.7138 10.4131 14.0668 10.4134 14.4237C10.4134 14.9332 10.5645 15.4313 10.8476 15.855C11.1307 16.2787 11.533 16.6089 12.0038 16.8039C12.4746 16.9989 12.9926 17.0499 13.4923 16.9505C13.9921 16.8511 14.4511 16.6057 14.8114 16.2454C15.1718 15.8851 15.4171 15.4261 15.5165 14.9263C15.6159 14.4265 15.5649 13.9085 15.3699 13.4378C15.1749 12.967 14.8447 12.5646 14.421 12.2816C13.9974 11.9985 13.4993 11.8474 12.9897 11.8474Z" fill="#10B981"/>
</svg>
