<svg width="56" height="56" viewBox="0 0 56 56" fill="none" xmlns="http://www.w3.org/2000/svg">
<rect x="0.5" y="0.5" width="55" height="55" rx="27.5" fill="#ECFDF5" stroke="#10B981"/>
<path d="M20.7999 19.6C20.1634 19.6 19.5529 19.8529 19.1028 20.3029C18.6528 20.753 18.3999 21.3635 18.3999 22C18.3999 22.6365 18.6528 23.247 19.1028 23.6971C19.5529 24.1471 20.1634 24.4 20.7999 24.4H35.1999C35.8364 24.4 36.4469 24.1471 36.897 23.6971C37.347 23.247 37.5999 22.6365 37.5999 22C37.5999 21.3635 37.347 20.753 36.897 20.3029C36.4469 19.8529 35.8364 19.6 35.1999 19.6H20.7999Z" fill="#10B981"/>
<path fill-rule="evenodd" clip-rule="evenodd" d="M19.5999 25.6H36.3999V34C36.3999 34.6365 36.147 35.247 35.6969 35.6971C35.2468 36.1471 34.6364 36.4 33.9999 36.4H21.9999C21.3633 36.4 20.7529 36.1471 20.3028 35.6971C19.8527 35.247 19.5999 34.6365 19.5999 34V25.6ZM25.5999 29.2C25.5999 28.8817 25.7263 28.5765 25.9513 28.3515C26.1764 28.1264 26.4816 28 26.7999 28H29.1999C29.5181 28 29.8233 28.1264 30.0484 28.3515C30.2734 28.5765 30.3999 28.8817 30.3999 29.2C30.3999 29.5183 30.2734 29.8235 30.0484 30.0485C29.8233 30.2736 29.5181 30.4 29.1999 30.4H26.7999C26.4816 30.4 26.1764 30.2736 25.9513 30.0485C25.7263 29.8235 25.5999 29.5183 25.5999 29.2Z" fill="#10B981"/>
</svg>
